<mxfile host="Electron" modified="2023-09-05T10:10:11.755Z" agent="Mozilla/5.0 (Windows NT 10.0; Win64; x64) AppleWebKit/537.36 (KHTML, like Gecko) draw.io/21.6.5 Chrome/114.0.5735.243 Electron/25.3.1 Safari/537.36" version="21.6.5" etag="091VRHDi8RJNZZ9HGGTP" type="device" pages="2">
  <diagram name="Process" id="Process">
    <mxGraphModel dx="1570" dy="868" grid="1" gridSize="10" guides="1" tooltips="1" connect="1" arrows="1" fold="1" page="1" pageScale="1" pageWidth="827" pageHeight="1169" math="0" shadow="0">
      <root>
        <mxCell id="0" />
        <mxCell id="1" parent="0" />
        <UserObject label="" tags="Background" id="2">
          <mxCell style="vsdxID=1028;fillColor=none;gradientColor=none;strokeColor=none;points=[[0.06,0,0],[0.12,0,0],[0.19,0,0],[0.25,0,0],[0.31,0,0],[0.37,0,0],[0.44,0,0],[0.5,0,0],[0.56,0,0],[0.62,0,0],[0.69,0,0],[0.75,0,0],[0.81,0,0],[0.87,0,0],[0.94,0,0]];labelBackgroundColor=none;rounded=0;html=1;whiteSpace=wrap;" parent="1" vertex="1">
            <mxGeometry x="40" y="72" width="1045" height="368" as="geometry" />
          </mxCell>
        </UserObject>
        <mxCell id="3" style="vsdxID=1029;fillColor=#ffffff;gradientColor=none;fillOpacity=0;shape=stencil(nZBLDoAgDERP0z3SIyjew0SURgSD+Lu9kMZoXLhwN9O+tukAlrNpJg1SzDH4QW/URgNYgZTkjA4UkwJUgGXng+6DX1zLfmoymdXo17xh5zmRJ6Q42BWCfc2oJfdAr+Yv+AP9Cb7OJ3H/2JG1HNGz/84klThPVCc=);strokeColor=#e0a303;points=[[0.06,1,0],[0.13,1,0],[0.19,1,0],[0.25,1,0],[0.31,1,0],[0.37,1,0],[0.44,1,0],[0.5,1,0],[0.56,1,0],[0.63,1,0],[0.69,1,0],[0.75,1,0],[0.81,1,0],[0.88,1,0],[0.94,1,0],[0.06,0,0],[0.13,0,0],[0.19,0,0],[0.25,0,0],[0.31,0,0],[0.37,0,0],[0.44,0,0],[0.5,0,0],[0.56,0,0],[0.63,0,0],[0.69,0,0],[0.75,0,0],[0.81,0,0],[0.88,0,0],[0.94,0,0]];labelBackgroundColor=none;rounded=0;html=1;whiteSpace=wrap;" parent="2" vertex="1">
          <mxGeometry width="1045" height="368" as="geometry" />
        </mxCell>
        <mxCell id="4" value="&lt;div style=&quot;font-size: 1px&quot;&gt;&lt;font style=&quot;font-size:22.58px;font-family:Calibri;color:#7d5b03;direction:ltr;letter-spacing:0px;line-height:120%;opacity:1&quot;&gt;Copy Lookup Value&lt;br&gt;&lt;/font&gt;&lt;/div&gt;" style="verticalAlign=middle;align=left;overflow=width;vsdxID=1030;fillColor=#ffffff;gradientColor=none;shape=stencil(nZBLDoAgDERP0z3SIyjew0SURgSD+Lu9kMZoXLhwN9O+tukAlrNpJg1SzDH4QW/URgNYgZTkjA4UkwJUgGXng+6DX1zLfmoymdXo17xh5zmRJ6Q42BWCfc2oJfdAr+Yv+AP9Cb7OJ3H/2JG1HNGz/84klThPVCc=);strokeColor=#FFFFFF;points=[[0.06,1,0],[0.13,1,0],[0.19,1,0],[0.25,1,0],[0.31,1,0],[0.37,1,0],[0.44,1,0],[0.5,1,0],[0.56,1,0],[0.63,1,0],[0.69,1,0],[0.75,1,0],[0.81,1,0],[0.88,1,0],[0.94,1,0],[0.06,0,0],[0.13,0,0],[0.19,0,0],[0.25,0,0],[0.31,0,0],[0.37,0,0],[0.44,0,0],[0.5,0,0],[0.56,0,0],[0.63,0,0],[0.69,0,0],[0.75,0,0],[0.81,0,0],[0.88,0,0],[0.94,0,0]];labelBackgroundColor=none;rounded=0;html=1;whiteSpace=wrap;" parent="2" vertex="1">
          <mxGeometry x="10" y="10" width="1010" height="30" as="geometry" />
        </mxCell>
        <UserObject label="" tags="Background" id="5">
          <mxCell style="vsdxID=1031;fillColor=#ffffff;gradientColor=none;fillOpacity=0;shape=stencil(nZBLDoAgDERP0z3SIyjew0SURgSD+Lu9kMZoXLhwN9N5bdMClrNpJg1SzDH4QW/URgNYgZTkjA4UkwJUgGXng+6DX1zLfmoymdXo1zxh5z6RO6Q42BWCfc2oJfdAr/AX/IH+BF/rk7hv7MjaZ/L+RirxJ1Gd);strokeColor=#e0a303;points=[];labelBackgroundColor=none;rounded=0;html=1;whiteSpace=wrap;" parent="1" vertex="1">
            <mxGeometry x="40" y="132" width="1045" height="308" as="geometry" />
          </mxCell>
        </UserObject>
        <UserObject label="" tags="Background" id="6">
          <mxCell style="vsdxID=1025;fillColor=none;gradientColor=none;strokeColor=none;points=[];labelBackgroundColor=none;rounded=0;html=1;whiteSpace=wrap;" parent="1" vertex="1">
            <mxGeometry x="40" y="132" width="1045" height="308" as="geometry" />
          </mxCell>
        </UserObject>
        <mxCell id="7" style="vsdxID=1026;fillColor=#ffffff;gradientColor=none;fillOpacity=0;shape=stencil(nZBLDoAgDERP0z3SIyjew0SURgSD+Lu9kMZoXLhwN9O+tukAlrNpJg1SzDH4QW/URgNYgZTkjA4UkwJUgGXng+6DX1zLfmoymdXo17xh5zmRJ6Q42BWCfc2oJfdAr+Yv+AP9Cb7OJ3H/2JG1HNGz/84klThPVCc=);strokeColor=#e0a303;points=[];labelBackgroundColor=none;rounded=0;html=1;whiteSpace=wrap;" parent="6" vertex="1">
          <mxGeometry width="1045" height="308" as="geometry" />
        </mxCell>
        <mxCell id="8" value="&lt;div style=&quot;font-size: 1px&quot;&gt;&lt;font style=&quot;font-size:16.93px;font-family:Calibri;color:#7d5b03;direction:ltr;letter-spacing:0px;line-height:120%;opacity:1&quot;&gt;server-side / client-side&lt;br&gt;&lt;/font&gt;&lt;/div&gt;" style="verticalAlign=middle;align=center;overflow=width;vsdxID=1027;rotation=270;fillColor=#ffffff;gradientColor=none;shape=stencil(nZBLDoAgDERP0z3SIyjew0SURgSD+Lu9kMZoXLhwN9O+tukAlrNpJg1SzDH4QW/URgNYgZTkjA4UkwJUgGXng+6DX1zLfmoymdXo17xh5zmRJ6Q42BWCfc2oJfdAr+Yv+AP9Cb7OJ3H/2JG1HNGz/84klThPVCc=);strokeColor=#e0a303;points=[];labelBackgroundColor=none;rounded=0;html=1;whiteSpace=wrap;" parent="6" vertex="1">
          <mxGeometry x="-139.97" y="134.68" width="315.35" height="35.42" as="geometry" />
        </mxCell>
        <UserObject label="" tags="Background" id="12">
          <mxCell style="vsdxID=1032;fillColor=#ffffff;gradientColor=none;shape=stencil(nZBLDoAgDERP0z3SIyDew0QUooJB/N1eSGM0LFywm2lf23QAxarbRQFna/BuVIfpggasgXNjtfImRAUoAUXvvBq822xHfmkTmdTs9rThpDmWJji7yFWMfEPoZOwHfZpF8A9aCGbno3h/jCYPIJYoPJQ3);strokeColor=#e0a303;points=[];labelBackgroundColor=none;rounded=0;html=1;whiteSpace=wrap;" parent="1" vertex="1">
            <mxGeometry x="80" y="112" width="1005" height="328" as="geometry" />
          </mxCell>
        </UserObject>
        <UserObject label="" tags="Background" id="13">
          <mxCell style="vsdxID=1033;fillColor=none;gradientColor=none;strokeColor=none;points=[];labelBackgroundColor=none;rounded=0;html=1;whiteSpace=wrap;" parent="1" vertex="1">
            <mxGeometry x="80" y="112" width="1005" height="328" as="geometry" />
          </mxCell>
        </UserObject>
        <mxCell id="14" value="&lt;div style=&quot;font-size: 1px&quot;&gt;&lt;/div&gt;" style="verticalAlign=middle;align=center;overflow=width;vsdxID=1034;fillColor=none;gradientColor=none;fillOpacity=0;strokeColor=none;spacingTop=-1;spacingBottom=-1;spacingLeft=-1;spacingRight=-1;points=[];labelBackgroundColor=none;rounded=0;html=1;whiteSpace=wrap;" parent="13" vertex="1">
          <mxGeometry width="1005" height="328" as="geometry" />
        </mxCell>
        <mxCell id="15" value="&lt;div style=&quot;font-size: 1px&quot;&gt;&lt;font style=&quot;font-size:16.93px;font-family:Calibri;color:#7c5b02;direction:ltr;letter-spacing:0px;line-height:120%;opacity:1&quot;&gt;  &lt;br/&gt;&lt;/font&gt;&lt;/div&gt;" style="verticalAlign=middle;align=right;overflow=width;vsdxID=1035;fillColor=#ffffff;gradientColor=none;shape=stencil(nZBLDoAgDERP0z3SIyjew0SURgSD+Lu9kMZoXLhwN9O+tukAlrNpJg1SzDH4QW/URgNYgZTkjA4UkwJUgGXng+6DX1zLfmoymdXo17xh5zmRJ6Q42BWCfc2oJfdAr+Yv+AP9Cb7OJ3H/2JG1HNGz/84klThPVCc=);strokeColor=#e0a303;spacingTop=-1;spacingBottom=-1;spacingLeft=-1;spacingRight=-1;points=[];labelBackgroundColor=none;rounded=0;html=1;whiteSpace=wrap;" parent="13" vertex="1">
          <mxGeometry x="-40" width="1045" height="20" as="geometry" />
        </mxCell>
        <UserObject label="" tags="Container" id="16">
          <mxCell style="vsdxID=1041;fillColor=none;gradientColor=none;strokeColor=none;spacingLeft=1;spacingRight=1;points=[[0.25,0,0],[0.5,0,0],[0.75,0,0],[1,0.25,0],[1,0.5,0],[1,0.75,0],[0.75,0.75,0],[0.5,0.75,0],[0.25,0.75,0],[0.25,0.75,0],[0.25,0.5,0],[0.25,0.25,0]];labelBackgroundColor=none;rounded=0;html=1;whiteSpace=wrap;" parent="1" vertex="1">
            <mxGeometry x="174" y="122" width="214" height="286" as="geometry" />
          </mxCell>
        </UserObject>
        <mxCell id="17" style="vsdxID=1042;fillColor=#ffffff;gradientColor=none;shape=stencil(UzV2Ls5ILEhVNTIoLinKz04tz0wpyVA1dlE1MsrMy0gtyiwBslSNXVWNndPyi1LTi/JL81Ig/IJEkEoQKze/DGRCBUSfAUiHkUElhGdoAOG7QZTmZOYhKTWlkVqYJFmKiXcDVVSSqRDNS0AGIj7SMnNyINGJLI8ef0AhSNwbuwIA);strokeColor=#e0a303;points=[[0.25,0,0],[0.5,0,0],[0.75,0,0],[1,0.25,0],[1,0.5,0],[1,0.75,0],[0.75,1,0],[0.5,1,0],[0.25,1,0],[0,0.75,0],[0,0.5,0],[0,0.25,0]];labelBackgroundColor=none;rounded=0;html=1;whiteSpace=wrap;" parent="16" vertex="1">
          <mxGeometry width="214" height="286" as="geometry" />
        </mxCell>
        <mxCell id="18" value="&lt;div style=&quot;font-size: 1px&quot;&gt;&lt;p style=&quot;text-align:center;margin-left:0;margin-right:0;margin-top:0px;margin-bottom:0px;text-indent:0;vertical-align:middle;direction:ltr;&quot;&gt;&lt;/p&gt;&lt;/div&gt;" style="text;vsdxID=1042;fillColor=none;gradientColor=none;strokeColor=none;points=[[0.25,0,0],[0.5,0,0],[0.75,0,0],[1,0.25,0],[1,0.5,0],[1,0.75,0],[0.75,1,0],[0.5,1,0],[0.25,1,0],[0,0.75,0],[0,0.5,0],[0,0.25,0]];labelBackgroundColor=none;rounded=0;html=1;whiteSpace=wrap;verticalAlign=middle;align=center;overflow=width;;html=1;" parent="17" vertex="1">
          <mxGeometry width="214" height="286" as="geometry" />
        </mxCell>
        <mxCell id="19" style="vsdxID=1044;fillColor=none;gradientColor=none;gradientDirection=north;strokeColor=none;spacingLeft=1;spacingRight=1;points=[[0.25,0,0],[0.5,0,0],[0.75,0,0],[1,0.25,0],[1,0.5,0],[1,0.75,0],[0.75,1,0],[0.5,1,0],[0.25,1,0],[0,0.75,0],[0,0.5,0],[0,0.25,0]];labelBackgroundColor=none;rounded=0;html=1;whiteSpace=wrap;" parent="16" vertex="1">
          <mxGeometry width="214" height="36" as="geometry" />
        </mxCell>
        <mxCell id="20" value="&lt;div style=&quot;font-size: 1px&quot;&gt;&lt;/div&gt;" style="verticalAlign=middle;align=center;overflow=width;vsdxID=1045;fillColor=none;gradientColor=none;strokeColor=none;points=[[0.25,0,0],[0.5,0,0],[0.75,0,0],[1,0.25,0],[1,0.5,0],[1,0.75,0],[0.75,1,0],[0.5,1,0],[0.25,1,0],[0,0.75,0],[0,0.5,0],[0,0.25,0]];labelBackgroundColor=none;rounded=0;html=1;whiteSpace=wrap;" parent="19" vertex="1">
          <mxGeometry width="214" height="36" as="geometry" />
        </mxCell>
        <mxCell id="21" value="&lt;div style=&quot;font-size: 1px&quot;&gt;&lt;font style=&quot;font-size:16.93px;font-family:Calibri;color:#7c5b02;direction:ltr;letter-spacing:0px;line-height:120%;opacity:1&quot;&gt;GIVEN&lt;br/&gt;&lt;/font&gt;&lt;/div&gt;" style="text;vsdxID=1044;fillColor=none;gradientColor=none;gradientDirection=north;strokeColor=none;spacingLeft=1;spacingRight=1;points=[[0.25,0,0],[0.5,0,0],[0.75,0,0],[1,0.25,0],[1,0.5,0],[1,0.75,0],[0.75,1,0],[0.5,1,0],[0.25,1,0],[0,0.75,0],[0,0.5,0],[0,0.25,0]];labelBackgroundColor=none;rounded=0;html=1;whiteSpace=wrap;verticalAlign=middle;align=left;overflow=width;;html=1;" parent="19" vertex="1">
          <mxGeometry x="10" width="200" height="36" as="geometry" />
        </mxCell>
        <UserObject label="" tags="Container" id="22">
          <mxCell style="vsdxID=1046;fillColor=none;gradientColor=none;strokeColor=none;spacingLeft=1;spacingRight=1;points=[[0.25,0,0],[0.5,0,0],[0.75,0,0],[1,0.25,0],[1,0.5,0],[1,0.75,0],[0.75,0.75,0],[0.5,0.75,0],[0.25,0.75,0],[0.25,0.75,0],[0.25,0.5,0],[0.25,0.25,0]];labelBackgroundColor=none;rounded=0;html=1;whiteSpace=wrap;" parent="1" vertex="1">
            <mxGeometry x="400" y="122" width="360" height="132" as="geometry" />
          </mxCell>
        </UserObject>
        <mxCell id="23" style="vsdxID=1047;fillColor=#ffffff;gradientColor=none;shape=stencil(UzV2Ls5ILEhVNTIoLinKz04tz0wpyVA1dlE1MsrMy0gtyiwBslSNXVWNndPyi1LTi/JL81Ig/IJEkEoQKze/DGRCBUSfAUiHkUElhGdoAOG7QZTmZOYhKTWlkVqYJFmKiXcDVVSSqRDNS0AGIj7SMnNyINGJLI8ef0AhSNwbuwIA);strokeColor=#e0a303;points=[[0.25,0,0],[0.5,0,0],[0.75,0,0],[1,0.25,0],[1,0.5,0],[1,0.75,0],[0.75,1,0],[0.5,1,0],[0.25,1,0],[0,0.75,0],[0,0.5,0],[0,0.25,0]];labelBackgroundColor=none;rounded=0;html=1;whiteSpace=wrap;" parent="22" vertex="1">
          <mxGeometry width="360" height="132" as="geometry" />
        </mxCell>
        <mxCell id="24" value="&lt;div style=&quot;font-size: 1px&quot;&gt;&lt;p style=&quot;text-align:center;margin-left:0;margin-right:0;margin-top:0px;margin-bottom:0px;text-indent:0;vertical-align:middle;direction:ltr;&quot;&gt;&lt;/p&gt;&lt;/div&gt;" style="text;vsdxID=1047;fillColor=none;gradientColor=none;strokeColor=none;points=[[0.25,0,0],[0.5,0,0],[0.75,0,0],[1,0.25,0],[1,0.5,0],[1,0.75,0],[0.75,1,0],[0.5,1,0],[0.25,1,0],[0,0.75,0],[0,0.5,0],[0,0.25,0]];labelBackgroundColor=none;rounded=0;html=1;whiteSpace=wrap;verticalAlign=middle;align=center;overflow=width;;html=1;" parent="23" vertex="1">
          <mxGeometry width="360" height="132" as="geometry" />
        </mxCell>
        <mxCell id="25" style="vsdxID=1049;fillColor=none;gradientColor=none;gradientDirection=north;strokeColor=none;spacingLeft=1;spacingRight=1;points=[[0.25,0,0],[0.5,0,0],[0.75,0,0],[1,0.25,0],[1,0.5,0],[1,0.75,0],[0.75,1,0],[0.5,1,0],[0.25,1,0],[0,0.75,0],[0,0.5,0],[0,0.25,0]];labelBackgroundColor=none;rounded=0;html=1;whiteSpace=wrap;" parent="22" vertex="1">
          <mxGeometry x="10" width="350" height="36" as="geometry" />
        </mxCell>
        <mxCell id="26" value="&lt;div style=&quot;font-size: 1px&quot;&gt;&lt;/div&gt;" style="verticalAlign=middle;align=center;overflow=width;vsdxID=1050;fillColor=none;gradientColor=none;strokeColor=none;points=[[0.25,0,0],[0.5,0,0],[0.75,0,0],[1,0.25,0],[1,0.5,0],[1,0.75,0],[0.75,1,0],[0.5,1,0],[0.25,1,0],[0,0.75,0],[0,0.5,0],[0,0.25,0]];labelBackgroundColor=none;rounded=0;html=1;whiteSpace=wrap;" parent="25" vertex="1">
          <mxGeometry width="349.99999999999994" height="36" as="geometry" />
        </mxCell>
        <mxCell id="27" value="&lt;div style=&quot;font-size: 1px&quot;&gt;&lt;font style=&quot;font-size:16.93px;font-family:Calibri;color:#7c5b02;direction:ltr;letter-spacing:0px;line-height:120%;opacity:1&quot;&gt;WHEN&lt;br/&gt;&lt;/font&gt;&lt;/div&gt;" style="text;vsdxID=1049;fillColor=none;gradientColor=none;gradientDirection=north;strokeColor=none;spacingLeft=1;spacingRight=1;points=[[0.25,0,0],[0.5,0,0],[0.75,0,0],[1,0.25,0],[1,0.5,0],[1,0.75,0],[0.75,1,0],[0.5,1,0],[0.25,1,0],[0,0.75,0],[0,0.5,0],[0,0.25,0]];labelBackgroundColor=none;rounded=0;html=1;whiteSpace=wrap;verticalAlign=middle;align=left;overflow=width;;html=1;" parent="25" vertex="1">
          <mxGeometry width="349.99999999999994" height="36" as="geometry" />
        </mxCell>
        <UserObject label="" tags="Container" id="28">
          <mxCell style="vsdxID=1051;fillColor=none;gradientColor=none;strokeColor=none;spacingLeft=1;spacingRight=1;points=[[0.25,0,0],[0.5,0,0],[0.75,0,0],[1,0.25,0],[1,0.5,0],[1,0.75,0],[0.75,0.75,0],[0.5,0.75,0],[0.25,0.75,0],[0.25,0.75,0],[0.25,0.5,0],[0.25,0.25,0]];labelBackgroundColor=none;rounded=0;html=1;whiteSpace=wrap;" parent="1" vertex="1">
            <mxGeometry x="770" y="122" width="214" height="286" as="geometry" />
          </mxCell>
        </UserObject>
        <mxCell id="29" style="vsdxID=1052;fillColor=#ffffff;gradientColor=none;shape=stencil(UzV2Ls5ILEhVNTIoLinKz04tz0wpyVA1dlE1MsrMy0gtyiwBslSNXVWNndPyi1LTi/JL81Ig/IJEkEoQKze/DGRCBUSfAUiHkUElhGdoAOG7QZTmZOYhKTWlkVqYJFmKiXcDVVSSqRDNS0AGIj7SMnNyINGJLI8ef0AhSNwbuwIA);strokeColor=#e0a303;points=[[0.25,0,0],[0.5,0,0],[0.75,0,0],[1,0.25,0],[1,0.5,0],[1,0.75,0],[0.75,1,0],[0.5,1,0],[0.25,1,0],[0,0.75,0],[0,0.5,0],[0,0.25,0]];labelBackgroundColor=none;rounded=0;html=1;whiteSpace=wrap;" parent="28" vertex="1">
          <mxGeometry width="214" height="286" as="geometry" />
        </mxCell>
        <mxCell id="30" value="&lt;div style=&quot;font-size: 1px&quot;&gt;&lt;p style=&quot;text-align:center;margin-left:0;margin-right:0;margin-top:0px;margin-bottom:0px;text-indent:0;vertical-align:middle;direction:ltr;&quot;&gt;&lt;/p&gt;&lt;/div&gt;" style="text;vsdxID=1052;fillColor=none;gradientColor=none;strokeColor=none;points=[[0.25,0,0],[0.5,0,0],[0.75,0,0],[1,0.25,0],[1,0.5,0],[1,0.75,0],[0.75,1,0],[0.5,1,0],[0.25,1,0],[0,0.75,0],[0,0.5,0],[0,0.25,0]];labelBackgroundColor=none;rounded=0;html=1;whiteSpace=wrap;verticalAlign=middle;align=center;overflow=width;;html=1;" parent="29" vertex="1">
          <mxGeometry width="214" height="286" as="geometry" />
        </mxCell>
        <mxCell id="31" style="vsdxID=1054;fillColor=none;gradientColor=none;gradientDirection=north;strokeColor=none;spacingLeft=1;spacingRight=1;points=[[0.25,0,0],[0.5,0,0],[0.75,0,0],[1,0.25,0],[1,0.5,0],[1,0.75,0],[0.75,1,0],[0.5,1,0],[0.25,1,0],[0,0.75,0],[0,0.5,0],[0,0.25,0]];labelBackgroundColor=none;rounded=0;html=1;whiteSpace=wrap;" parent="28" vertex="1">
          <mxGeometry x="10" width="204" height="36" as="geometry" />
        </mxCell>
        <mxCell id="32" value="&lt;div style=&quot;font-size: 1px&quot;&gt;&lt;/div&gt;" style="verticalAlign=middle;align=center;overflow=width;vsdxID=1055;fillColor=none;gradientColor=none;strokeColor=none;points=[[0.25,0,0],[0.5,0,0],[0.75,0,0],[1,0.25,0],[1,0.5,0],[1,0.75,0],[0.75,1,0],[0.5,1,0],[0.25,1,0],[0,0.75,0],[0,0.5,0],[0,0.25,0]];labelBackgroundColor=none;rounded=0;html=1;whiteSpace=wrap;" parent="31" vertex="1">
          <mxGeometry width="204" height="36" as="geometry" />
        </mxCell>
        <mxCell id="33" value="&lt;div style=&quot;font-size: 1px&quot;&gt;&lt;font style=&quot;font-size:16.93px;font-family:Calibri;color:#7c5b02;direction:ltr;letter-spacing:0px;line-height:120%;opacity:1&quot;&gt;THEN&lt;br/&gt;&lt;/font&gt;&lt;/div&gt;" style="text;vsdxID=1054;fillColor=none;gradientColor=none;gradientDirection=north;strokeColor=none;spacingLeft=1;spacingRight=1;points=[[0.25,0,0],[0.5,0,0],[0.75,0,0],[1,0.25,0],[1,0.5,0],[1,0.75,0],[0.75,1,0],[0.5,1,0],[0.25,1,0],[0,0.75,0],[0,0.5,0],[0,0.25,0]];labelBackgroundColor=none;rounded=0;html=1;whiteSpace=wrap;verticalAlign=middle;align=left;overflow=width;;html=1;" parent="31" vertex="1">
          <mxGeometry width="204" height="36" as="geometry" />
        </mxCell>
        <UserObject label="&lt;div style=&quot;font-size: 1px&quot;&gt;&lt;font style=&quot;font-size:16.93px;font-family:Calibri;color:#ffffff;direction:ltr;letter-spacing:0px;line-height:120%;opacity:1&quot;&gt;Data setup&lt;br/&gt;&lt;/font&gt;&lt;/div&gt;" Function="server-side" tags="Flowchart" id="34">
          <mxCell style="verticalAlign=middle;align=center;overflow=width;vsdxID=7;fillColor=#535991;gradientColor=none;shape=stencil(nZBLDoAgDERP0z3SIyjew0SURgSD+Lu9kMZoXLhwN9O+tukAlrNpJg1SzDH4QW/URgNYgZTkjA4UkwJUgGXng+6DX1zLfmoymdXo17xh5zmRJ6Q42BWCfc2oJfdAr+Yv+AP9Cb7OJ3H/2JG1HNGz/84klThPVCc=);strokeColor=#ffffff;spacingTop=-1;spacingBottom=-1;spacingLeft=-1;spacingRight=-1;points=[[0,0.5,0],[1,0.5,0],[0.5,1,0],[0.5,0,0]];labelBackgroundColor=none;rounded=0;html=1;whiteSpace=wrap;" parent="1" vertex="1">
            <mxGeometry x="186" y="324" width="100" height="72" as="geometry" />
          </mxCell>
        </UserObject>
        <UserObject label="&lt;div style=&quot;font-size: 1px&quot;&gt;&lt;font style=&quot;font-size:16.93px;font-family:Calibri;color:#ffffff;direction:ltr;letter-spacing:0px;line-height:120%;opacity:1&quot;&gt;Send request&lt;br/&gt;&lt;/font&gt;&lt;/div&gt;" Function="client-side" tags="Flowchart" id="36">
          <mxCell style="verticalAlign=middle;align=center;overflow=width;vsdxID=90;fillColor=#535991;gradientColor=none;shape=stencil(nZBLDoAgDERP0z3SIyjew0SURgSD+Lu9kMZoXLhwN9O+tukAlrNpJg1SzDH4QW/URgNYgZTkjA4UkwJUgGXng+6DX1zLfmoymdXo17xh5zmRJ6Q42BWCfc2oJfdAr+Yv+AP9Cb7OJ3H/2JG1HNGz/84klThPVCc=);strokeColor=#ffffff;spacingTop=-1;spacingBottom=-1;spacingLeft=-1;spacingRight=-1;points=[[0,0.5,0],[1,0.5,0],[0.5,1,0],[0.5,0,0]];labelBackgroundColor=none;rounded=0;html=1;whiteSpace=wrap;" parent="1" vertex="1">
            <mxGeometry x="530" y="170" width="100" height="72" as="geometry" />
          </mxCell>
        </UserObject>
        <UserObject label="&lt;div style=&quot;font-size: 1px&quot;&gt;&lt;font style=&quot;font-size:16.93px;font-family:Calibri;color:#ffffff;direction:ltr;letter-spacing:0px;line-height:120%;opacity:1&quot;&gt;Start&lt;br/&gt;&lt;/font&gt;&lt;/div&gt;" Function="server-side" tags="Flowchart" id="37">
          <mxCell style="verticalAlign=middle;align=center;overflow=width;vsdxID=1008;fillColor=#e0a303;gradientColor=none;shape=stencil(nVJbDsIgEDwNnyQIaTxArfcgum2JCM2Ctt5ecGusjW3Uv9md2cewMFWGVnfApAgR/Ql6c4wtUzsmpXEtoIkJMVUxVdYeoUF/cUeKO52VGZ39NXcYqE4WuUSKG4UbIR7xnrTWuIl2u6rVeEgczvriKC5Iu9DqSXI9mMDRRx2Nd2+c1dgAT0N4bXUzbkBU6AG6SXrFgvw09x8DC+/2swXxhYUEXuerjbV0/Sk/P3dK0VdR1R0=);strokeColor=#ffffff;spacingTop=-1;spacingBottom=-1;spacingLeft=-1;spacingRight=-1;points=[[0.5,1,0],[0.5,0,0],[0,0.5,0],[1,0.5,0]];labelBackgroundColor=none;rounded=0;html=1;whiteSpace=wrap;" parent="1" vertex="1">
            <mxGeometry x="86" y="340" width="74" height="40" as="geometry" />
          </mxCell>
        </UserObject>
        <UserObject label="&lt;div style=&quot;font-size: 1px&quot;&gt;&lt;font style=&quot;font-size:16.93px;font-family:Calibri;color:#ffffff;direction:ltr;letter-spacing:0px;line-height:120%;opacity:1&quot;&gt;End&lt;br/&gt;&lt;/font&gt;&lt;/div&gt;" Function="server-side" tags="Flowchart" id="38">
          <mxCell style="verticalAlign=middle;align=center;overflow=width;vsdxID=1013;fillColor=#e0a303;gradientColor=none;shape=stencil(tVJbDsIgEDwNnyQIaTxArfcgdtsSEZoFbb294NZYG9sPE/92dmZfDEyVodM9MClCRH+GwdSxY+rApDSuAzQxRUxVTJWNR2jRX11NuNdZmaOLv+UOI9XJIpdIcSe4E+KJj6S1xs20+02txlPicNEXJ3FB2pVWL5Lr0QSOPupovPvgrMYWeBrCG6vbaQOiwgDQz9IbJ8hvc385YOXd/nJCCt72NcZacn/OL+1OKfoqqnoA);strokeColor=#ffffff;spacingTop=-1;spacingBottom=-1;spacingLeft=-1;spacingRight=-1;points=[[0.5,1,0],[0.5,0,0],[0,0.5,0],[1,0.5,0]];labelBackgroundColor=none;rounded=0;html=1;whiteSpace=wrap;" parent="1" vertex="1">
            <mxGeometry x="1008" y="340" width="66" height="40" as="geometry" />
          </mxCell>
        </UserObject>
        <UserObject label="&lt;div style=&quot;font-size: 1px&quot;&gt;&lt;font style=&quot;font-size:16.93px;font-family:Franklin Gothic Book;color:#FFFFFF;direction:ltr;letter-spacing:0px;line-height:120%;opacity:1&quot;&gt;Receive response&lt;br/&gt;&lt;/font&gt;&lt;/div&gt;" Function="client-side" tags="Flowchart" id="39">
          <mxCell style="verticalAlign=middle;align=center;overflow=width;vsdxID=1016;fillColor=#535991;gradientColor=none;shape=stencil(nZBLDoAgDERP0z3SIyjew0SURgSD+Lu9kMZoXLhwN9O+tukAlrNpJg1SzDH4QW/URgNYgZTkjA4UkwJUgGXng+6DX1zLfmoymdXo17xh5zmRJ6Q42BWCfc2oJfdAr+Yv+AP9Cb7OJ3H/2JG1HNGz/84klThPVCc=);strokeColor=#ffffff;spacingTop=-1;spacingBottom=-1;spacingLeft=-1;spacingRight=-1;points=[[0,0.5,0],[1,0.5,0],[0.5,1,0],[0.5,0,0]];labelBackgroundColor=none;rounded=0;html=1;whiteSpace=wrap;" parent="1" vertex="1">
            <mxGeometry x="648" y="170" width="100" height="72" as="geometry" />
          </mxCell>
        </UserObject>
        <UserObject label="&lt;div style=&quot;font-size: 1px&quot;&gt;&lt;font style=&quot;font-size:16.93px;font-family:Franklin Gothic Book;color:#FFFFFF;direction:ltr;letter-spacing:0px;line-height:120%;opacity:1&quot;&gt;Verify response&lt;br/&gt;&lt;/font&gt;&lt;/div&gt;" Function="client-side" tags="Flowchart" id="40">
          <mxCell style="verticalAlign=middle;align=center;overflow=width;vsdxID=1018;fillColor=#535991;gradientColor=none;shape=stencil(nZBLDoAgDERP0z3SIyjew0SURgSD+Lu9kMZoXLhwN9O+tukAlrNpJg1SzDH4QW/URgNYgZTkjA4UkwJUgGXng+6DX1zLfmoymdXo17xh5zmRJ6Q42BWCfc2oJfdAr+Yv+AP9Cb7OJ3H/2JG1HNGz/84klThPVCc=);strokeColor=#ffffff;spacingTop=-1;spacingBottom=-1;spacingLeft=-1;spacingRight=-1;points=[[0,0.5,0],[1,0.5,0],[0.5,1,0],[0.5,0,0]];labelBackgroundColor=none;rounded=0;html=1;whiteSpace=wrap;" parent="1" vertex="1">
            <mxGeometry x="782" y="170" width="100" height="72" as="geometry" />
          </mxCell>
        </UserObject>
        <UserObject label="&lt;div style=&quot;font-size: 1px&quot;&gt;&lt;font style=&quot;font-size:16.93px;font-family:Franklin Gothic Book;color:#FFFFFF;direction:ltr;letter-spacing:0px;line-height:120%;opacity:1&quot;&gt;Verify data changes&lt;br/&gt;&lt;/font&gt;&lt;/div&gt;" Function="server-side" tags="Flowchart" id="41">
          <mxCell style="verticalAlign=middle;align=center;overflow=width;vsdxID=1021;fillColor=#535991;gradientColor=none;shape=stencil(nZBLDoAgDERP0z3SIyjew0SURgSD+Lu9kMZoXLhwN9O+tukAlrNpJg1SzDH4QW/URgNYgZTkjA4UkwJUgGXng+6DX1zLfmoymdXo17xh5zmRJ6Q42BWCfc2oJfdAr+Yv+AP9Cb7OJ3H/2JG1HNGz/84klThPVCc=);strokeColor=#ffffff;spacingTop=-1;spacingBottom=-1;spacingLeft=-1;spacingRight=-1;points=[[0,0.5,0],[1,0.5,0],[0.5,1,0],[0.5,0,0]];labelBackgroundColor=none;rounded=0;html=1;whiteSpace=wrap;" parent="1" vertex="1">
            <mxGeometry x="872" y="324" width="100" height="72" as="geometry" />
          </mxCell>
        </UserObject>
        <UserObject label="&lt;div style=&quot;font-size: 1px&quot;&gt;&lt;font style=&quot;font-size:16.93px;font-family:Franklin Gothic Book;color:#FFFFFF;direction:ltr;letter-spacing:0px;line-height:120%;opacity:1&quot;&gt;Set up request&lt;br/&gt;&lt;/font&gt;&lt;/div&gt;" Function="client-side" tags="Flowchart" id="42">
          <mxCell style="verticalAlign=middle;align=center;overflow=width;vsdxID=1039;fillColor=#535991;gradientColor=none;shape=stencil(nZBLDoAgDERP0z3SIyjew0SURgSD+Lu9kMZoXLhwN9O+tukAlrNpJg1SzDH4QW/URgNYgZTkjA4UkwJUgGXng+6DX1zLfmoymdXo17xh5zmRJ6Q42BWCfc2oJfdAr+Yv+AP9Cb7OJ3H/2JG1HNGz/84klThPVCc=);strokeColor=#ffffff;spacingTop=-1;spacingBottom=-1;spacingLeft=-1;spacingRight=-1;points=[[0,0.5,0],[1,0.5,0],[0.5,1,0],[0.5,0,0]];labelBackgroundColor=none;rounded=0;html=1;whiteSpace=wrap;" parent="1" vertex="1">
            <mxGeometry x="412" y="170" width="100" height="72" as="geometry" />
          </mxCell>
        </UserObject>
        <UserObject label="&lt;div style=&quot;font-size: 1px&quot;&gt;&lt;p style=&quot;text-align:center;margin-left:0;margin-right:0;margin-top:0px;margin-bottom:0px;text-indent:0;vertical-align:middle;direction:ltr;&quot;&gt;&lt;font style=&quot;font-size:14.11px;font-family:Calibri;color:#7d5b03;direction:ltr;letter-spacing:0px;line-height:120%;opacity:1&quot;&gt;Committed lookup value&lt;br/&gt;&lt;/font&gt;&lt;/p&gt;&lt;/div&gt;" Function="client-side" tags="Callout" id="43">
          <mxCell style="verticalAlign=middle;align=center;overflow=width;vsdxID=1056;fillColor=#ffffff;gradientColor=none;shape=stencil(nZHbDsIgDIafprcLtmF6P+d7LBkTIsLCcOrbC2k8kcyY3f0//UpPQM2ku1EBiikGf1JX00cNtAdE47QKJiYF1AI1gw/qGPzF9ezHLpNZnf2cf7hxnsgZKO7sNoL9gVFr3Af6DK6Cf6ArwaJ8Eu8ZB2Mtr+gVX1oAyUru/p8L5TdLdVVvF/soekiivEt64ptS+wA=);strokeColor=#e0a303;points=[];labelBackgroundColor=none;rounded=0;html=1;whiteSpace=wrap;" parent="1" vertex="1">
            <mxGeometry x="232" y="258" width="100" height="48" as="geometry" />
          </mxCell>
        </UserObject>
        <UserObject label="&lt;div style=&quot;font-size: 1px&quot;&gt;&lt;p style=&quot;text-align:center;margin-left:0;margin-right:0;margin-top:0px;margin-bottom:0px;text-indent:0;vertical-align:middle;direction:ltr;&quot;&gt;&lt;font style=&quot;font-size:14.11px;font-family:Calibri;color:#7d5b03;direction:ltr;letter-spacing:0px;line-height:120%;opacity:1&quot;&gt;Send POST request to copy lookup value&lt;br&gt;&lt;/font&gt;&lt;/p&gt;&lt;/div&gt;" Function="server-side" tags="Callout" id="45">
          <mxCell style="verticalAlign=middle;align=center;overflow=width;vsdxID=1058;fillColor=#ffffff;gradientColor=none;shape=stencil(UzV2Ls5ILEhVNTIoLinKz04tz0wpyVA1dlE1MsrMy0gtyiwBslSNXVWNndPyi1LTi/JL81Ig/IJEkEoQKze/DGRCBUSfAUiHkUElhGdoAOG7QZTmZOYhKYVJkqUYj1IyFaJZD2Qg/JiWmZMDCSK4PK4AMCXaejSVuuYWeuaWOJ2AZj2QgR4lQCFIdBq7AgA=);strokeColor=#e0a303;points=[];labelBackgroundColor=none;rounded=0;html=1;whiteSpace=wrap;" parent="1" vertex="1">
            <mxGeometry x="530" y="310" width="100" height="66" as="geometry" />
          </mxCell>
        </UserObject>
        <UserObject label="&lt;div style=&quot;font-size: 1px&quot;&gt;&lt;p style=&quot;text-align:center;margin-left:0;margin-right:0;margin-top:0px;margin-bottom:0px;text-indent:0;vertical-align:middle;direction:ltr;&quot;&gt;&lt;font style=&quot;font-size:14.11px;font-family:Calibri;color:#7d5b03;direction:ltr;letter-spacing:0px;line-height:120%;opacity:1&quot;&gt;Copied lookup value in database&lt;br&gt;&lt;/font&gt;&lt;/p&gt;&lt;/div&gt;" Function="client-side" tags="Callout" id="46">
          <mxCell style="verticalAlign=middle;align=center;overflow=width;vsdxID=1059;fillColor=#ffffff;gradientColor=none;shape=stencil(nZHLDsIgEEW/hi2BGTFxXet/NCkVIkJDserfC5n4Iqkx3d3LnGFeDJvJdKNmIKYUw0lfbZ8Mwz0DsN7oaFNWDFuGzRCiPsZw8T35sStkUecwlx9ulCdKBog7OSnIHwh11n+gz+Aq+Ae6EqzKZ/GecbDO0Ype8aUFKMXl5v+51Jbj7huXwCUstlK1kUV9mvxEZ8X2AQ==);strokeColor=#e0a303;points=[];labelBackgroundColor=none;rounded=0;html=1;whiteSpace=wrap;" parent="1" vertex="1">
            <mxGeometry x="860" y="250" width="100" height="66" as="geometry" />
          </mxCell>
        </UserObject>
        <UserObject label="&lt;div style=&quot;font-size: 1px&quot;&gt;&lt;p style=&quot;text-align:center;margin-left:0;margin-right:0;margin-top:0px;margin-bottom:0px;text-indent:0;vertical-align:middle;direction:ltr;&quot;&gt;&lt;font style=&quot;font-size:14.11px;font-family:Calibri;color:#7d5b03;direction:ltr;letter-spacing:0px;line-height:120%;opacity:1&quot;&gt;204 / Empty response&lt;br&gt;&lt;/font&gt;&lt;/p&gt;&lt;/div&gt;" Function="client-side" tags="Callout" id="47">
          <mxCell style="verticalAlign=middle;align=center;overflow=width;vsdxID=1060;fillColor=#ffffff;gradientColor=none;shape=stencil(nZHbDsIgDIafprcLtmF6P+d7LBkTIsLCcOrbC2k8kcyY3f0//UpPQM2ku1EBiikGf1JX00cNtAdE47QKJiYF1AI1gw/qGPzF9ezHLpNZnf2cf7hxnsgZKO7sNoL9gVFr3Af6DK6Cf6ArwaJ8Eu8ZB2Mtr+gVX1oAyUru/p8L5TdLdVVvF/soekiivEt64ptS+wA=);strokeColor=#e0a303;points=[];labelBackgroundColor=none;rounded=0;html=1;whiteSpace=wrap;" parent="1" vertex="1">
            <mxGeometry x="828" y="104" width="100" height="48" as="geometry" />
          </mxCell>
        </UserObject>
        <UserObject label="" tags="Connector" id="48">
          <mxCell style="vsdxID=1040;edgeStyle=none;startArrow=none;endArrow=block;startSize=5;endSize=5;strokeColor=#d49a01;spacingTop=0;spacingBottom=0;spacingLeft=0;spacingRight=0;verticalAlign=middle;html=1;labelBackgroundColor=#ffffff;rounded=0;exitX=1;exitY=0.5;exitDx=0;exitDy=0;exitPerimeter=0;entryX=0;entryY=0.5;entryDx=0;entryDy=0;entryPerimeter=0;" parent="1" source="42" target="36" edge="1">
            <mxGeometry relative="1" as="geometry">
              <mxPoint x="1" as="offset" />
              <Array as="points" />
            </mxGeometry>
          </mxCell>
        </UserObject>
        <UserObject label="" tags="Connector" id="49">
          <mxCell style="vsdxID=1024;edgeStyle=none;startArrow=none;endArrow=block;startSize=5;endSize=5;strokeColor=#d49a01;spacingTop=0;spacingBottom=0;spacingLeft=0;spacingRight=0;verticalAlign=middle;html=1;labelBackgroundColor=#FFFFFF;rounded=0;exitX=1;exitY=0.5;exitDx=0;exitDy=0;exitPerimeter=0;entryX=0;entryY=0.5;entryDx=0;entryDy=0;entryPerimeter=0;" parent="1" source="41" target="38" edge="1">
            <mxGeometry relative="1" as="geometry">
              <mxPoint as="offset" />
              <Array as="points" />
            </mxGeometry>
          </mxCell>
        </UserObject>
        <UserObject label="" tags="Connector" id="50">
          <mxCell style="vsdxID=1022;edgeStyle=none;startArrow=none;endArrow=block;startSize=5;endSize=5;strokeColor=#d49a01;spacingTop=0;spacingBottom=0;spacingLeft=0;spacingRight=0;verticalAlign=middle;html=1;labelBackgroundColor=#FFFFFF;rounded=0;exitX=0.5;exitY=1;exitDx=0;exitDy=0;exitPerimeter=0;entryX=0;entryY=0.5;entryDx=0;entryDy=0;entryPerimeter=0;" parent="1" source="40" target="41" edge="1">
            <mxGeometry relative="1" as="geometry">
              <mxPoint as="offset" />
              <Array as="points">
                <mxPoint x="832" y="360" />
              </Array>
            </mxGeometry>
          </mxCell>
        </UserObject>
        <UserObject label="" tags="Connector" id="51">
          <mxCell style="vsdxID=1019;edgeStyle=none;startArrow=none;endArrow=block;startSize=5;endSize=5;strokeColor=#d49a01;spacingTop=0;spacingBottom=0;spacingLeft=0;spacingRight=0;verticalAlign=middle;html=1;labelBackgroundColor=#FFFFFF;rounded=0;exitX=1;exitY=0.5;exitDx=0;exitDy=0;exitPerimeter=0;entryX=0;entryY=0.5;entryDx=0;entryDy=0;entryPerimeter=0;" parent="1" source="39" target="40" edge="1">
            <mxGeometry relative="1" as="geometry">
              <mxPoint as="offset" />
              <Array as="points" />
            </mxGeometry>
          </mxCell>
        </UserObject>
        <UserObject label="" tags="Connector" id="52">
          <mxCell style="vsdxID=87;edgeStyle=none;startArrow=none;endArrow=block;startSize=5;endSize=5;strokeColor=#d49a01;spacingTop=0;spacingBottom=0;spacingLeft=0;spacingRight=0;verticalAlign=middle;html=1;labelBackgroundColor=#ffffff;rounded=0;exitX=1;exitY=0.5;exitDx=0;exitDy=0;exitPerimeter=0;entryX=0.03;entryY=0.403;entryDx=0;entryDy=0;entryPerimeter=0;" parent="1" source="34" target="42" edge="1">
            <mxGeometry relative="1" as="geometry">
              <mxPoint as="offset" />
              <Array as="points">
                <mxPoint x="324" y="360" />
                <mxPoint x="324" y="200" />
              </Array>
              <mxPoint x="324" y="242" as="targetPoint" />
            </mxGeometry>
          </mxCell>
        </UserObject>
        <UserObject label="" tags="Connector" id="54">
          <mxCell style="vsdxID=1017;edgeStyle=none;startArrow=none;endArrow=block;startSize=5;endSize=5;strokeColor=#d49a01;spacingTop=0;spacingBottom=0;spacingLeft=0;spacingRight=0;verticalAlign=middle;html=1;labelBackgroundColor=#FFFFFF;rounded=0;exitX=1;exitY=0.5;exitDx=0;exitDy=0;exitPerimeter=0;entryX=0;entryY=0.5;entryDx=0;entryDy=0;entryPerimeter=0;" parent="1" source="36" target="39" edge="1">
            <mxGeometry relative="1" as="geometry">
              <mxPoint x="1" as="offset" />
              <Array as="points" />
            </mxGeometry>
          </mxCell>
        </UserObject>
        <UserObject label="&lt;div style=&quot;font-size: 1px&quot;&gt;&lt;/div&gt;" tags="Connector" id="55">
          <mxCell style="vsdxID=1015;edgeStyle=none;startArrow=none;endArrow=block;startSize=5;endSize=5;strokeColor=#d49a01;spacingTop=0;spacingBottom=0;spacingLeft=0;spacingRight=0;verticalAlign=middle;html=1;labelBackgroundColor=#ffffff;rounded=0;align=center;exitX=1;exitY=0.5;exitDx=0;exitDy=0;exitPerimeter=0;entryX=0;entryY=0.5;entryDx=0;entryDy=0;entryPerimeter=0;" parent="1" source="37" target="34" edge="1">
            <mxGeometry relative="1" as="geometry">
              <mxPoint as="offset" />
              <Array as="points" />
            </mxGeometry>
          </mxCell>
        </UserObject>
        <UserObject label="" tags="Connector Flowchart Data_Graphic Container Callout" id="56">
          <mxCell parent="1" vertex="1" visible="0">
            <mxGeometry as="geometry" />
          </mxCell>
        </UserObject>
      </root>
    </mxGraphModel>
  </diagram>
  <diagram name="Subprocess" id="Subprocess">
    <mxGraphModel style="default-style2">
      <root>
        <mxCell id="0" />
        <mxCell id="1" parent="0" />
        <UserObject label="" tags="Flowchart" id="2">
          <mxCell style="vsdxID=2;fillColor=#ffffff;gradientColor=none;shape=stencil(UzV2Ls5ILEhVNTIoLinKz04tz0wpyVA1dlE1MsrMy0gtyiwBslSNXVWNndPyi1LTi/JL81Ig/IJEkEoQKze/DGRCBUSfAUiHkUElhGcK4bpBVOZk5iGpNEVVikeloQHZpsK0YlWLz1QgA+HFtMycHEgIIcujBwlQCBKcxq4A);strokeColor=#dfa202;spacingTop=-1;spacingBottom=-1;spacingLeft=-1;spacingRight=-1;points=[[0,0.5,0],[1,0.5,0],[0.5,0,0],[0.5,1,0]];labelBackgroundColor=none;rounded=0;html=1;whiteSpace=wrap;" vertex="1" parent="1">
            <mxGeometry x="539" y="304" width="100" height="60" as="geometry" />
          </mxCell>
        </UserObject>
        <mxCell id="3" value="&lt;div style=&quot;font-size: 1px&quot;&gt;&lt;font style=&quot;font-size:11.29px;font-family:Calibri;color:#7c5b02;direction:ltr;letter-spacing:0px;line-height:120%;opacity:1&quot;&gt;Condition?&lt;br/&gt;&lt;/font&gt;&lt;/div&gt;" style="text;vsdxID=2;fillColor=none;gradientColor=none;strokeColor=none;spacingTop=-1;spacingBottom=-1;spacingLeft=-1;spacingRight=-1;points=[[0,0.5,0],[1,0.5,0],[0.5,0,0],[0.5,1,0]];labelBackgroundColor=none;rounded=0;html=1;whiteSpace=wrap;verticalAlign=middle;align=center;overflow=width;;html=1;" vertex="1" parent="2">
          <mxGeometry x="8.33" y="7.5" width="83.33" height="45" as="geometry" />
        </mxCell>
        <UserObject label="&lt;div style=&quot;font-size: 1px&quot;&gt;&lt;font style=&quot;font-size:11.29px;font-family:Calibri;color:#ffffff;direction:ltr;letter-spacing:0px;line-height:120%;opacity:1&quot;&gt;Process&lt;br/&gt;&lt;/font&gt;&lt;/div&gt;" tags="Flowchart" id="4">
          <mxCell style="verticalAlign=middle;align=center;overflow=width;vsdxID=5;fillColor=#9dff45;gradientColor=none;shape=stencil(nZBLDoAgDERP0z3SIyjew0SURgSD+Lu9kMZoXLhwN9O+tukAlrNpJg1SzDH4QW/URgNYgZTkjA4UkwJUgGXng+6DX1zLfmoymdXo17xh5zmRJ6Q42BWCfc2oJfdAr+Yv+AP9Cb7OJ3H/2JG1HNGz/84klThPVCc=);strokeColor=#ffffff;spacingTop=-1;spacingBottom=-1;spacingLeft=-1;spacingRight=-1;points=[[0,0.5,0],[1,0.5,0],[0.5,1,0],[0.5,0,0]];labelBackgroundColor=none;rounded=0;html=1;whiteSpace=wrap;" vertex="1" parent="1">
            <mxGeometry x="539" y="475" width="100" height="60" as="geometry" />
          </mxCell>
        </UserObject>
        <UserObject label="" tags="Flowchart" id="5">
          <mxCell style="vsdxID=7;fillColor=#35ffe0;gradientColor=none;shape=stencil(UzV2Ls5ILEhVNTIoLinKz04tz0wpyVA1dlE1MsrMy0gtyiwBslSNXVWNndPyi1LTi/JL81Ig/IJEkEoQKze/DGRCBUSfrqEpSI+RQSWEb2hgAOa7QRTnZOYhKbYgQa0hmsH4lBKtkoBrgQyEP9Myc3IgwYQsjx4uQCFImBq7AgA=);strokeColor=#ffffff;spacingTop=-1;spacingBottom=-1;spacingLeft=-1;spacingRight=-1;points=[[0,0.5,0],[1,0.5,0],[0.5,1,0],[0.5,0,0]];labelBackgroundColor=none;rounded=0;html=1;whiteSpace=wrap;" vertex="1" parent="1">
            <mxGeometry x="539" y="132" width="100" height="60" as="geometry" />
          </mxCell>
        </UserObject>
        <mxCell id="6" value="&lt;div style=&quot;font-size: 1px&quot;&gt;&lt;font style=&quot;font-size:11.29px;font-family:Calibri;color:#ffffff;direction:ltr;letter-spacing:0px;line-height:120%;opacity:1&quot;&gt;Data&lt;br/&gt;&lt;/font&gt;&lt;/div&gt;" style="text;vsdxID=7;fillColor=none;gradientColor=none;strokeColor=none;spacingTop=-1;spacingBottom=-1;spacingLeft=-1;spacingRight=-1;points=[[0,0.5,0],[1,0.5,0],[0.5,1,0],[0.5,0,0]];labelBackgroundColor=none;rounded=0;html=1;whiteSpace=wrap;verticalAlign=middle;align=center;overflow=width;;html=1;" vertex="1" parent="5">
          <mxGeometry x="16.67" width="66.67" height="60" as="geometry" />
        </mxCell>
        <UserObject label="&lt;div style=&quot;font-size: 1px&quot;&gt;&lt;font style=&quot;font-size:11.29px;font-family:Calibri;color:#ffffff;direction:ltr;letter-spacing:0px;line-height:120%;opacity:1&quot;&gt;Process&lt;br/&gt;&lt;/font&gt;&lt;/div&gt;" tags="Flowchart" id="7">
          <mxCell style="verticalAlign=middle;align=center;overflow=width;vsdxID=8;fillColor=#9dff45;gradientColor=none;shape=stencil(nZBLDoAgDERP0z3SIyjew0SURgSD+Lu9kMZoXLhwN9O+tukAlrNpJg1SzDH4QW/URgNYgZTkjA4UkwJUgGXng+6DX1zLfmoymdXo17xh5zmRJ6Q42BWCfc2oJfdAr+Yv+AP9Cb7OJ3H/2JG1HNGz/84klThPVCc=);strokeColor=#ffffff;spacingTop=-1;spacingBottom=-1;spacingLeft=-1;spacingRight=-1;points=[[0,0.5,0],[1,0.5,0],[0.5,1,0],[0.5,0,0]];labelBackgroundColor=none;rounded=0;html=1;whiteSpace=wrap;" vertex="1" parent="1">
            <mxGeometry x="539" y="647" width="100" height="60" as="geometry" />
          </mxCell>
        </UserObject>
        <UserObject label="" tags="Connector" id="8">
          <mxCell style="vsdxID=6;edgeStyle=none;startArrow=none;endArrow=classic;startSize=3;endSize=5;strokeColor=#588f25;spacingTop=0;spacingBottom=0;spacingLeft=0;spacingRight=0;verticalAlign=middle;html=1;labelBackgroundColor=#ffffff;rounded=1;exitX=0.5;exitY=1;exitDx=0;exitDy=0;exitPerimeter=0;entryX=0.5;entryY=0;entryDx=0;entryDy=0;entryPerimeter=0;" edge="1" parent="1" source="4" target="7">
            <mxGeometry relative="1" as="geometry">
              <mxPoint x="10" y="-1" as="offset" />
              <Array as="points" />
            </mxGeometry>
          </mxCell>
        </UserObject>
        <UserObject label="&lt;div style=&quot;font-size: 1px&quot;&gt;&lt;font style=&quot;font-size:11.29px;font-family:Calibri;color:#73b834;direction:ltr;letter-spacing:0px;line-height:120%;opacity:1&quot;&gt;No&lt;br/&gt;&lt;/font&gt;&lt;/div&gt;" tags="Connector" id="9">
          <mxCell style="vsdxID=4;edgeStyle=none;startArrow=none;endArrow=classic;startSize=3;endSize=5;strokeColor=#588f25;spacingTop=0;spacingBottom=0;spacingLeft=0;spacingRight=0;verticalAlign=middle;html=1;labelBackgroundColor=#ffffff;rounded=1;align=center;exitX=0.5;exitY=1;exitDx=0;exitDy=0;exitPerimeter=0;entryX=0.5;entryY=0;entryDx=0;entryDy=0;entryPerimeter=0;" edge="1" parent="1" source="2" target="4">
            <mxGeometry relative="1" as="geometry">
              <mxPoint x="10" y="-9" as="offset" />
              <Array as="points" />
            </mxGeometry>
          </mxCell>
        </UserObject>
        <UserObject label="" tags="Connector" id="10">
          <mxCell style="vsdxID=3;edgeStyle=none;startArrow=none;endArrow=classic;startSize=3;endSize=5;strokeColor=#588f25;spacingTop=0;spacingBottom=0;spacingLeft=0;spacingRight=0;verticalAlign=middle;html=1;labelBackgroundColor=#ffffff;rounded=1;exitX=0.5;exitY=1;exitDx=0;exitDy=0;exitPerimeter=0;entryX=0.5;entryY=0;entryDx=0;entryDy=0;entryPerimeter=0;" edge="1" parent="1" source="5" target="2">
            <mxGeometry relative="1" as="geometry">
              <mxPoint x="10" y="-1" as="offset" />
              <Array as="points" />
            </mxGeometry>
          </mxCell>
        </UserObject>
        <UserObject label="&lt;div style=&quot;font-size: 1px&quot;&gt;&lt;font style=&quot;font-size:11.29px;font-family:Calibri;color:#73b834;direction:ltr;letter-spacing:0px;line-height:120%;opacity:1&quot;&gt;Yes&lt;br/&gt;&lt;/font&gt;&lt;/div&gt;" tags="Connector" id="11">
          <mxCell style="vsdxID=1;edgeStyle=none;startArrow=none;endArrow=classic;startSize=3;endSize=5;strokeColor=#588f25;spacingTop=0;spacingBottom=0;spacingLeft=0;spacingRight=0;verticalAlign=middle;html=1;labelBackgroundColor=#ffffff;rounded=1;align=center;exitX=1;exitY=0.5;exitDx=0;exitDy=0;exitPerimeter=0;entryX=1;entryY=0.5;entryDx=0;entryDy=0;entryPerimeter=0;" edge="1" parent="1" source="2" target="7">
            <mxGeometry relative="1" as="geometry">
              <mxPoint x="10" y="-21" as="offset" />
              <Array as="points">
                <mxPoint x="724" y="334" />
                <mxPoint x="724" y="677.23" />
              </Array>
            </mxGeometry>
          </mxCell>
        </UserObject>
        <UserObject label="" tags="Connector Flowchart Data_Graphic Container Callout Connector Flowchart" id="12">
          <mxCell vertex="1" parent="1" visible="0">
            <mxGeometry as="geometry" />
          </mxCell>
        </UserObject>
      </root>
    </mxGraphModel>
  </diagram>
</mxfile>
